<?xml version="1.0" standalone="no"?>
<!DOCTYPE svg PUBLIC "-//W3C//DTD SVG 20010904//EN"
 "http://www.w3.org/TR/2001/REC-SVG-20010904/DTD/svg10.dtd">
<svg version="1.0" xmlns="http://www.w3.org/2000/svg"
 width="1012.000000pt" height="1012.000000pt" viewBox="0 0 1012.000000 1012.000000"
 preserveAspectRatio="xMidYMid meet">
<metadata>
Created by potrace 1.14, written by Peter Selinger 2001-2017
</metadata>
<g transform="translate(0.000000,1012.000000) scale(0.100000,-0.100000)"
fill="#000000" stroke="none">
<path d="M8858 7205 c-2 -1 -37 -5 -78 -9 -41 -3 -84 -8 -95 -10 -11 -2 -40
-7 -65 -10 -35 -6 -267 -52 -350 -71 -43 -9 -160 -41 -285 -76 -408 -117 -684
-225 -895 -350 -37 -22 -101 -48 -145 -59 -261 -67 -557 -235 -915 -520 -91
-72 -169 -137 -175 -143 -5 -7 -28 -27 -50 -46 -22 -18 -85 -75 -139 -125 -55
-50 -111 -101 -125 -114 -14 -13 -115 -112 -225 -220 -123 -123 -189 -182
-174 -157 101 164 261 476 318 621 68 171 98 398 66 507 -33 114 -96 196 -185
239 -69 34 -218 35 -337 1 -269 -75 -589 -263 -964 -566 -95 -77 -178 -145
-191 -157 -8 -8 -44 -40 -80 -70 -35 -30 -86 -75 -114 -101 -27 -25 -72 -65
-99 -90 -145 -132 -280 -262 -551 -533 -165 -165 -290 -289 -279 -276 12 14
81 97 154 185 72 88 144 173 158 190 15 16 42 48 61 70 55 66 108 129 131 155
12 14 38 45 58 69 21 25 62 74 93 110 209 248 337 452 423 678 58 153 77 323
45 422 -18 57 -74 152 -120 204 -107 122 -315 199 -604 222 -70 5 -400 6 -465
0 -25 -2 -85 -6 -135 -9 -49 -3 -99 -8 -110 -10 -11 -2 -49 -7 -85 -11 -36 -3
-72 -8 -80 -10 -8 -2 -37 -7 -65 -10 -57 -6 -82 -11 -325 -61 -222 -46 -179
-36 -415 -100 -179 -49 -420 -128 -530 -174 -268 -113 -495 -228 -595 -302
-167 -123 -269 -303 -276 -483 -4 -122 25 -190 109 -259 44 -36 85 -50 106
-37 8 5 -1 17 -26 34 -80 56 -111 141 -77 213 84 177 491 367 1278 594 98 28
186 53 195 55 9 2 54 13 101 24 224 56 523 112 670 126 36 4 76 9 90 12 47 9
455 12 505 3 28 -5 68 -12 90 -15 156 -26 289 -113 341 -223 22 -45 28 -74 30
-137 6 -194 -88 -429 -305 -757 -95 -145 -333 -471 -368 -506 -7 -7 -13 -17
-13 -20 0 -4 -10 -18 -23 -32 -20 -22 -63 -74 -201 -245 -23 -27 -43 -52 -46
-55 -3 -3 -23 -27 -45 -55 -21 -27 -42 -52 -45 -55 -9 -8 -321 -388 -381 -465
-70 -88 -189 -253 -189 -261 0 -3 -8 -18 -19 -32 -47 -67 -30 -133 26 -97 51
34 118 101 221 225 57 69 108 124 112 123 4 -1 43 37 86 85 73 81 110 120 254
276 432 465 1031 1052 1365 1338 396 339 710 549 887 594 91 24 172 9 216 -39
41 -43 51 -92 47 -212 -3 -113 -5 -125 -32 -235 -32 -135 -222 -554 -398 -880
-31 -58 -80 -148 -108 -200 -28 -52 -63 -117 -79 -143 -15 -26 -28 -50 -28
-52 0 -2 -25 -47 -55 -100 -30 -54 -55 -98 -55 -99 0 -1 -45 -81 -100 -176
-55 -96 -100 -184 -100 -196 0 -35 32 -64 85 -77 92 -24 173 -10 206 36 43 59
347 520 433 656 53 84 103 159 109 166 7 6 64 68 127 136 529 568 1144 1117
1421 1267 77 41 184 79 251 87 l57 7 -3 -43 c-5 -80 45 -205 100 -248 13 -10
24 -22 24 -25 0 -13 -75 -164 -107 -214 -18 -29 -33 -55 -33 -58 0 -8 -116
-178 -269 -393 -135 -190 -248 -349 -381 -541 -120 -173 -354 -526 -447 -675
-307 -491 -364 -636 -368 -935 -2 -114 15 -183 67 -271 89 -149 283 -252 504
-266 107 -7 132 -2 173 33 64 53 22 123 -46 77 -49 -34 -91 -46 -144 -41 -105
10 -146 95 -136 282 17 314 199 759 594 1451 204 358 389 652 736 1173 115
173 232 357 260 410 53 99 104 233 109 287 4 36 19 44 218 118 299 111 862
255 1143 292 27 4 57 8 67 10 40 8 232 19 325 19 532 -1 773 -197 589 -479
-161 -247 -567 -469 -1172 -641 -219 -62 -535 -137 -717 -169 -16 -3 -91 -16
-164 -30 -74 -13 -136 -23 -138 -22 -2 2 136 179 270 347 80 100 264 331 342
430 55 69 105 131 112 138 24 25 10 72 -27 92 -29 16 -66 -7 -140 -87 -54 -57
-241 -287 -317 -388 -12 -17 -29 -39 -38 -50 -8 -11 -28 -38 -45 -60 -16 -22
-33 -44 -38 -50 -69 -85 -612 -877 -612 -892 0 -2 -17 -30 -39 -61 -60 -90
-204 -339 -248 -432 -65 -134 -90 -227 -69 -255 18 -24 59 -13 84 23 10 15 54
95 97 177 183 351 344 619 429 712 60 66 142 123 245 171 124 57 443 157 561
176 19 3 45 8 58 10 22 5 121 15 212 22 74 5 323 5 350 -1 14 -3 50 -9 80 -15
108 -20 242 -69 316 -116 126 -79 190 -198 201 -374 6 -109 -15 -209 -69 -315
-65 -130 -203 -289 -330 -383 -83 -60 -157 -112 -163 -112 -2 0 -28 -14 -56
-31 -195 -121 -550 -227 -914 -275 -27 -3 -58 -8 -68 -10 -101 -19 -561 -26
-687 -11 -71 9 -168 32 -215 51 -16 7 -47 16 -67 20 -30 5 -38 4 -38 -8 0 -25
168 -154 255 -196 79 -38 257 -92 345 -105 24 -4 47 -8 50 -10 28 -17 404 -25
572 -12 100 7 287 34 339 48 21 5 57 13 80 18 149 30 394 123 552 208 88 48
272 165 287 182 3 3 28 24 55 46 53 42 168 148 218 203 81 86 102 113 153 188
104 156 151 284 161 444 10 168 -33 284 -152 405 -76 78 -128 112 -238 157
-69 28 -257 71 -367 84 -30 3 -66 8 -80 10 -39 5 -304 6 -415 0 -55 -3 -91 -3
-80 0 11 3 47 12 80 20 74 18 174 47 280 82 44 14 82 27 85 27 6 2 7 2 160 63
102 40 266 119 385 185 136 75 320 213 425 318 165 164 225 316 186 466 -71
279 -412 419 -1038 428 -92 1 -169 1 -170 0z"/>
</g>
</svg>
